<svg width="81" height="50" viewBox="0 0 81 50" fill="none" xmlns="http://www.w3.org/2000/svg">
<path d="M65.5324 45.0667C69.0086 41.1466 70.875 36.7498 70.875 29.6226C70.875 17.0809 62.5826 5.83998 50.5238 0.282227L47.5099 5.22006C58.7655 11.6844 60.966 20.073 61.8435 25.362C60.0311 24.3658 57.6585 24.0182 55.3331 24.2476C49.2446 24.846 44.4454 30.1529 44.4454 36.7498C44.4454 40.0761 45.6899 43.2661 47.9052 45.6181C50.1205 47.9701 53.125 49.2915 56.2579 49.2915C57.9904 49.2754 59.7026 48.8936 61.2949 48.1683C62.8871 47.443 64.3275 46.3887 65.5324 45.0667ZM31.7824 45.0667C35.2586 41.1466 37.125 36.7498 37.125 29.6226C37.125 17.0809 28.8326 5.83998 16.7738 0.282227L13.7599 5.22006C25.0155 11.6844 27.216 20.073 28.0935 25.362C26.2811 24.3658 23.9085 24.0182 21.5831 24.2476C15.4946 24.846 10.6954 30.1529 10.6954 36.7498C10.6954 40.0761 11.9399 43.2661 14.1552 45.6181C16.3705 47.9701 19.375 49.2915 22.5079 49.2915C24.2404 49.2754 25.9526 48.8936 27.5449 48.1683C29.1371 47.443 30.5775 46.3887 31.7824 45.0667Z" fill="white"/>
</svg>
