<svg width="81" height="50" viewBox="0 0 81 50" fill="none" xmlns="http://www.w3.org/2000/svg">
<path d="M15.4676 45.0667C11.9914 41.1466 10.125 36.7498 10.125 29.6226C10.125 17.0809 18.4174 5.83998 30.4762 0.282227L33.4901 5.22006C22.2345 11.6844 20.034 20.073 19.1565 25.362C20.9689 24.3658 23.3415 24.0182 25.6669 24.2476C31.7554 24.846 36.5546 30.1529 36.5546 36.7498C36.5546 40.0761 35.3101 43.2661 33.0948 45.6181C30.8795 47.9701 27.875 49.2915 24.7421 49.2915C23.0096 49.2754 21.2974 48.8936 19.7051 48.1683C18.1129 47.443 16.6725 46.3887 15.4676 45.0667ZM49.2176 45.0667C45.7414 41.1466 43.875 36.7498 43.875 29.6226C43.875 17.0809 52.1674 5.83998 64.2262 0.282227L67.2401 5.22006C55.9845 11.6844 53.784 20.073 52.9065 25.362C54.7189 24.3658 57.0915 24.0182 59.4169 24.2476C65.5054 24.846 70.3046 30.1529 70.3046 36.7498C70.3046 40.0761 69.0601 43.2661 66.8448 45.6181C64.6295 47.9701 61.625 49.2915 58.4921 49.2915C56.7596 49.2754 55.0474 48.8936 53.4551 48.1683C51.8629 47.443 50.4225 46.3887 49.2176 45.0667Z" fill="white"/>
</svg>
